# This file uses centimeters as units for non-parametric coordinates.

mtllib hologram.mtl
g default
v -0.671654 1.255729 -0.218233
v -0.571343 1.255729 -0.415105
v -0.415105 1.255729 -0.571343
v -0.218233 1.255729 -0.671654
v 0.000000 1.255729 -0.706218
v 0.218233 1.255729 -0.671654
v 0.415105 1.255729 -0.571343
v 0.571343 1.255729 -0.415105
v 0.671653 1.255729 -0.218233
v 0.706218 1.255729 0.000000
v 0.671653 1.255729 0.218233
v 0.571343 1.255729 0.415105
v 0.415105 1.255729 0.571342
v 0.218233 1.255729 0.671653
v 0.000000 1.255729 0.706218
v -0.218233 1.255729 0.671653
v -0.415105 1.255729 0.571342
v -0.571342 1.255729 0.415105
v -0.671653 1.255729 0.218233
v -0.706218 1.255729 0.000000
v 0.000000 0.286994 0.000000
vt 0.722370 0.193934
vt 0.689160 0.128754
vt 0.637432 0.077027
vt 0.572253 0.043816
vt 0.500000 0.032372
vt 0.427747 0.043816
vt 0.362568 0.077027
vt 0.310841 0.128754
vt 0.277630 0.193934
vt 0.266186 0.266186
vt 0.277630 0.338439
vt 0.310841 0.403619
vt 0.362568 0.455346
vt 0.427748 0.488556
vt 0.500000 0.500000
vt 0.572252 0.488556
vt 0.637432 0.455346
vt 0.689159 0.403618
vt 0.722370 0.338439
vt 0.733814 0.266186
vt 0.266186 0.500000
vt 0.289568 0.500000
vt 0.312949 0.500000
vt 0.336330 0.500000
vt 0.359712 0.500000
vt 0.383093 0.500000
vt 0.406475 0.500000
vt 0.429856 0.500000
vt 0.453237 0.500000
vt 0.476619 0.500000
vt 0.500000 0.500000
vt 0.523381 0.500000
vt 0.546763 0.500000
vt 0.570144 0.500000
vt 0.593526 0.500000
vt 0.616907 0.500000
vt 0.640288 0.500000
vt 0.663670 0.500000
vt 0.687051 0.500000
vt 0.710432 0.500000
vt 0.733814 0.500000
vt 0.500000 0.967628
vn 0.000000 1.000000 -0.000000
vn 0.000000 1.000000 -0.000000
vn 0.000000 1.000000 -0.000000
vn 0.000000 1.000000 -0.000000
vn 0.000000 1.000000 -0.000000
vn 0.000000 1.000000 -0.000000
vn 0.000000 1.000000 -0.000000
vn 0.000000 1.000000 -0.000000
vn 0.000000 1.000000 -0.000000
vn 0.000000 1.000000 -0.000000
vn 0.000000 1.000000 -0.000000
vn 0.000000 1.000000 -0.000000
vn 0.000000 1.000000 -0.000000
vn 0.000000 1.000000 -0.000000
vn 0.000000 1.000000 -0.000000
vn 0.000000 1.000000 -0.000000
vn 0.000000 1.000000 -0.000000
vn 0.000000 1.000000 -0.000000
vn 0.000000 1.000000 -0.000000
vn 0.000000 1.000000 -0.000000
vn -0.768518 -0.589090 -0.249706
vn -0.653740 -0.589090 -0.474970
vn 0.000000 -1.000000 -0.000001
vn -0.474970 -0.589090 -0.653740
vn -0.249706 -0.589090 -0.768518
vn 0.000000 -0.589090 -0.808067
vn 0.249707 -0.589090 -0.768517
vn 0.474970 -0.589090 -0.653740
vn 0.653740 -0.589090 -0.474970
vn 0.768518 -0.589090 -0.249706
vn 0.808067 -0.589090 0.000000
vn 0.768518 -0.589090 0.249707
vn 0.653740 -0.589090 0.474970
vn 0.474970 -0.589090 0.653740
vn 0.249707 -0.589090 0.768518
vn -0.000000 -0.589090 0.808067
vn -0.249707 -0.589090 0.768518
vn -0.474970 -0.589090 0.653740
vn -0.653740 -0.589090 0.474970
vn -0.768518 -0.589090 0.249707
vn -0.808067 -0.589090 0.000001
s off
g pCone3
usemtl initialShadingGroup
f 1/1/1 20/20/2 19/19/3 18/18/4 17/17/5 16/16/6 15/15/7 14/14/8 13/13/9 12/12/10 11/11/11 10/10/12 9/9/13 8/8/14 7/7/15 6/6/16 5/5/17 4/4/18 3/3/19 2/2/20
s 1
f 1/21/21 2/22/22 21/42/23
f 2/22/22 3/23/24 21/42/23
f 3/23/24 4/24/25 21/42/23
f 4/24/25 5/25/26 21/42/23
f 5/25/26 6/26/27 21/42/23
f 6/26/27 7/27/28 21/42/23
f 7/27/28 8/28/29 21/42/23
f 8/28/29 9/29/30 21/42/23
f 9/29/30 10/30/31 21/42/23
f 10/30/31 11/31/32 21/42/23
f 11/31/32 12/32/33 21/42/23
f 12/32/33 13/33/34 21/42/23
f 13/33/34 14/34/35 21/42/23
f 14/34/35 15/35/36 21/42/23
f 15/35/36 16/36/37 21/42/23
f 16/36/37 17/37/38 21/42/23
f 17/37/38 18/38/39 21/42/23
f 18/38/39 19/39/40 21/42/23
f 19/39/40 20/40/41 21/42/23
f 20/40/41 1/41/21 21/42/23
