# This file uses centimeters as units for non-parametric coordinates.

mtllib rock.mtl
g default
v -0.833156 1.325179 -0.010355
v -0.849564 1.325179 -0.024572
v -0.871054 1.325179 -0.027662
v -0.890802 1.325179 -0.018643
v -0.902540 1.325179 -0.000379
v -0.902540 1.325179 0.021332
v -0.890802 1.325179 0.039596
v -0.871054 1.325179 0.048615
v -0.849564 1.325179 0.045525
v -0.833156 1.325179 0.031308
v -0.827039 1.325179 0.010477
v -0.807162 1.349821 -0.027060
v -0.836728 1.349821 -0.052679
v -0.875451 1.349821 -0.070103
v -0.911037 1.349821 -0.053852
v -0.932188 1.349821 -0.009084
v -0.932188 1.349821 0.030037
v -0.911037 1.349821 0.062948
v -0.875451 1.349821 0.079200
v -0.836728 1.349821 0.073632
v -0.807162 1.349821 0.048013
v -0.796140 1.349821 0.010477
v -0.792736 1.385429 -0.036331
v -0.845651 1.385429 -0.075218
v -0.877892 1.385429 -0.075220
v -0.922267 1.385429 -0.054955
v -0.948641 1.385429 -0.013915
v -0.955136 1.379761 0.034868
v -0.922267 1.385429 0.075908
v -0.877892 1.385429 0.086597
v -0.829605 1.385429 0.089230
v -0.792736 1.385429 0.057284
v -0.778992 1.385429 0.010477
v -0.792736 1.424950 -0.036331
v -0.824852 1.431472 -0.069704
v -0.877892 1.424950 -0.075220
v -0.922267 1.424950 -0.054955
v -0.948641 1.424950 -0.013915
v -0.955136 1.419282 0.034868
v -0.922267 1.424950 0.066332
v -0.877892 1.424950 0.086597
v -0.829605 1.424950 0.089230
v -0.792736 1.424950 0.057284
v -0.790832 1.413344 0.010477
v -0.807162 1.460558 -0.027060
v -0.836728 1.460558 -0.052679
v -0.875451 1.460558 -0.058247
v -0.911037 1.449731 -0.030431
v -0.932188 1.460558 -0.009084
v -0.940091 1.452555 0.030037
v -0.911037 1.460558 0.066695
v -0.875451 1.460558 0.079200
v -0.836728 1.460558 0.073632
v -0.819002 1.448952 0.048013
v -0.796140 1.460558 0.010477
v -0.833156 1.478747 -0.010355
v -0.849564 1.478747 -0.024572
v -0.871054 1.474165 -0.027662
v -0.890802 1.479806 -0.018643
v -0.902540 1.479806 -0.000379
v -0.902540 1.480978 0.021332
v -0.890802 1.480978 0.039596
v -0.871054 1.485199 0.048615
v -0.849564 1.479330 0.043210
v -0.833156 1.479514 0.031308
v -0.827039 1.479514 0.010477
v -0.865570 1.316385 0.010477
v -0.865570 1.485514 0.010477
vt 0.406025 0.065105
vt 0.520686 0.065105
vt 0.508312 0.156305
vt 0.403200 0.156305
vt 0.496203 0.001992
vt 0.542982 0.001992
vt 0.620885 0.065105
vt 0.633259 0.141789
vt 0.508312 0.257530
vt 0.403200 0.257530
vt 0.598589 0.001992
vt 0.705179 0.065105
vt 0.738371 0.156305
vt 0.633259 0.243013
vt 0.520686 0.348730
vt 0.466011 0.321001
vt 0.645368 0.001992
vt 0.713845 0.257530
vt 0.620885 0.328233
vt 0.714774 0.348730
vt 0.598589 0.401032
vt 0.542982 0.398030
vt 0.645368 0.401032
vt 0.065002 0.317619
vt 0.065002 0.221478
vt 0.156202 0.221478
vt 0.156202 0.341364
vt 0.001889 0.274832
vt 0.001889 0.221478
vt 0.065002 0.125337
vt 0.156202 0.101592
vt 0.227700 0.221478
vt 0.257427 0.341364
vt 0.065002 0.383236
vt 0.156202 0.423186
vt 0.001889 0.168124
vt 0.065002 0.059720
vt 0.156202 0.001992
vt 0.257427 0.101592
vt 0.348627 0.221478
vt 0.318901 0.317619
vt 0.257427 0.423186
vt 0.274132 0.016117
vt 0.348627 0.125337
vt 0.397179 0.221478
vt 0.397179 0.274832
vt 0.348627 0.383236
vt 0.348627 0.059720
vt 0.395215 0.168124
vt 0.396707 0.305315
vt 0.553953 0.580003
vt 0.511929 0.543588
vt 0.544805 0.471599
vt 0.620531 0.537216
vt 0.470933 0.633357
vt 0.456888 0.535674
vt 0.445625 0.426972
vt 0.569620 0.633357
vt 0.406307 0.558774
vt 0.354480 0.468596
vt 0.553953 0.686711
vt 0.511929 0.723126
vt 0.376243 0.605553
vt 0.620531 0.729498
vt 0.544805 0.795114
vt 0.456888 0.731039
vt 0.376243 0.661160
vt 0.445625 0.809374
vt 0.406307 0.707939
vt 0.354480 0.767750
vt 0.946572 0.676976
vt 0.870847 0.742593
vt 0.837970 0.670604
vt 0.879995 0.634190
vt 0.771667 0.756853
vt 0.782930 0.678518
vt 0.796974 0.580835
vt 0.680522 0.685610
vt 0.732348 0.655418
vt 0.895661 0.580835
vt 0.765416 0.800326
vt 0.651761 0.748421
vt 0.626350 0.630935
vt 0.702285 0.608639
vt 0.879995 0.527481
vt 0.837970 0.496998
vt 0.702285 0.553032
vt 0.782930 0.483153
vt 0.732348 0.506253
vt 0.771667 0.404818
vt 0.870847 0.419078
vt 0.680522 0.436847
vt 0.318245 0.710597
vt 0.219065 0.710597
vt 0.212815 0.619397
vt 0.295391 0.619397
vt 0.127920 0.710597
vt 0.099159 0.619397
vt 0.212815 0.518172
vt 0.348661 0.501468
vt 0.099159 0.518172
vt 0.219065 0.426972
vt 0.318245 0.426972
vt 0.030651 0.714383
vt 0.121796 0.714383
vt 0.115545 0.805583
vt 0.001889 0.805583
vt 0.220975 0.714383
vt 0.239220 0.805583
vt 0.115545 0.906808
vt 0.001889 0.906808
vt 0.239220 0.906808
vt 0.121796 0.998008
vt 0.030651 0.998008
vt 0.220975 0.998008
vn 0.418580 -0.769049 -0.483067
vn 0.418580 -0.769049 -0.483067
vn 0.418580 -0.769049 -0.483067
vn 0.418580 -0.769049 -0.483067
vn 0.186537 -0.815728 -0.547532
vn 0.186537 -0.815728 -0.547532
vn 0.186537 -0.815728 -0.547532
vn 0.186537 -0.815728 -0.547532
vn -0.216187 -0.853914 -0.473385
vn -0.216187 -0.853914 -0.473385
vn -0.216187 -0.853914 -0.473385
vn -0.216187 -0.853914 -0.473385
vn -0.538066 -0.794774 -0.280749
vn -0.538066 -0.794774 -0.280749
vn -0.538066 -0.794774 -0.280749
vn -0.538066 -0.794774 -0.280749
vn -0.639190 -0.769049 0.000000
vn -0.639190 -0.769049 0.000000
vn -0.639190 -0.769049 0.000000
vn -0.639190 -0.769049 0.000000
vn -0.537721 -0.769049 0.345571
vn -0.537721 -0.769049 0.345571
vn -0.537721 -0.769049 0.345571
vn -0.537721 -0.769049 0.345571
vn -0.265529 -0.769049 0.581428
vn -0.265529 -0.769049 0.581428
vn -0.265529 -0.769049 0.581428
vn -0.265529 -0.769049 0.581428
vn 0.090966 -0.769049 0.632684
vn 0.090966 -0.769049 0.632684
vn 0.090966 -0.769049 0.632684
vn 0.090966 -0.769049 0.632684
vn 0.418581 -0.769049 0.483067
vn 0.418581 -0.769049 0.483067
vn 0.418581 -0.769049 0.483067
vn 0.418581 -0.769049 0.483067
vn 0.613299 -0.769049 0.180081
vn 0.613298 -0.769049 0.180081
vn 0.613298 -0.769049 0.180081
vn 0.613299 -0.769049 0.180081
vn 0.613298 -0.769049 -0.180081
vn 0.613298 -0.769049 -0.180081
vn 0.613298 -0.769049 -0.180081
vn 0.613298 -0.769049 -0.180081
vn 0.572096 -0.370948 -0.731507
vn 0.572096 -0.370948 -0.731507
vn 0.572096 -0.370948 -0.731507
vn 0.572096 -0.370948 -0.731507
vn 0.225842 -0.321127 -0.919713
vn 0.225842 -0.321127 -0.919713
vn 0.225842 -0.321127 -0.919713
vn 0.225842 -0.321127 -0.919713
vn -0.410249 -0.157207 -0.898322
vn -0.410249 -0.157207 -0.898322
vn -0.410249 -0.157207 -0.898322
vn -0.410249 -0.157207 -0.898322
vn -0.817623 -0.355557 -0.452849
vn -0.817623 -0.355557 -0.452849
vn -0.817623 -0.355557 -0.452849
vn -0.817623 -0.355557 -0.452849
vn -0.853109 -0.512808 -0.096094
vn -0.853109 -0.512808 -0.096094
vn -0.853109 -0.512808 -0.096094
vn -0.853109 -0.512808 -0.096094
vn -0.680533 -0.500167 0.535452
vn -0.680533 -0.500167 0.535452
vn -0.680533 -0.500167 0.535452
vn -0.680533 -0.500167 0.535452
vn -0.303013 -0.315239 0.899337
vn -0.303013 -0.315239 0.899337
vn -0.303013 -0.315239 0.899337
vn -0.303013 -0.315239 0.899337
vn 0.032056 -0.309031 0.950512
vn 0.032056 -0.309031 0.950512
vn 0.032056 -0.309031 0.950512
vn 0.032056 -0.309031 0.950512
vn 0.594467 -0.419455 0.686051
vn 0.594467 -0.419455 0.686051
vn 0.594467 -0.419455 0.686051
vn 0.594467 -0.419455 0.686051
vn 0.871005 -0.419455 0.255750
vn 0.871005 -0.419455 0.255750
vn 0.871005 -0.419455 0.255750
vn 0.871005 -0.419455 0.255750
vn 0.871005 -0.419455 -0.255748
vn 0.871005 -0.419455 -0.255748
vn 0.871005 -0.419455 -0.255748
vn 0.871005 -0.419455 -0.255748
vn 0.639152 -0.106269 -0.761703
vn 0.639152 -0.106269 -0.761703
vn 0.639152 -0.106269 -0.761703
vn 0.639152 -0.106269 -0.761703
vn 0.060723 0.049492 -0.996927
vn 0.060723 0.049492 -0.996927
vn 0.060723 0.049492 -0.996927
vn 0.060723 0.049492 -0.996927
vn -0.415415 0.000000 -0.909632
vn -0.415415 0.000000 -0.909632
vn -0.415415 0.000000 -0.909632
vn -0.415415 0.000000 -0.909632
vn -0.841254 0.000000 -0.540641
vn -0.841254 0.000000 -0.540641
vn -0.841254 0.000000 -0.540641
vn -0.841254 0.000000 -0.540641
vn -0.991254 0.000000 -0.131969
vn -0.991254 0.000000 -0.131969
vn -0.991254 0.000000 -0.131969
vn -0.991254 0.000000 -0.131969
vn -0.744645 0.080273 0.662616
vn -0.744645 0.080273 0.662616
vn -0.744645 0.080273 0.662616
vn -0.744645 0.080273 0.662616
vn -0.327197 0.113647 0.938097
vn -0.327197 0.113647 0.938097
vn -0.327197 0.113647 0.938097
vn -0.327197 0.113647 0.938097
vn -0.054451 0.000000 0.998516
vn -0.054451 0.000000 0.998516
vn -0.054451 0.000000 0.998516
vn -0.054451 0.000000 0.998516
vn 0.654861 0.000000 0.755750
vn 0.654861 0.000000 0.755750
vn 0.654861 0.000000 0.755750
vn 0.654861 0.000000 0.755750
vn 0.974990 0.171175 0.141751
vn 0.974990 0.171175 0.141751
vn 0.974990 0.171175 0.141751
vn 0.974990 0.171175 0.141751
vn 0.974990 0.171175 -0.141749
vn 0.974990 0.171175 -0.141749
vn 0.974990 0.171175 -0.141749
vn 0.974990 0.171175 -0.141749
vn 0.626184 0.498311 -0.599650
vn 0.626184 0.498311 -0.599650
vn 0.626184 0.498311 -0.599650
vn 0.626184 0.498311 -0.599650
vn 0.072548 0.472240 -0.878480
vn 0.072548 0.472240 -0.878480
vn 0.072548 0.472240 -0.878480
vn 0.072548 0.472240 -0.878480
vn -0.479196 0.568176 -0.668990
vn -0.479196 0.568176 -0.668990
vn -0.479196 0.568176 -0.668990
vn -0.479196 0.568176 -0.668990
vn -0.612748 0.554569 -0.563022
vn -0.612748 0.554569 -0.563022
vn -0.612748 0.554569 -0.563022
vn -0.612748 0.554569 -0.563022
vn -0.906212 0.414401 -0.083978
vn -0.906212 0.414401 -0.083978
vn -0.906212 0.414401 -0.083978
vn -0.906212 0.414401 -0.083978
vn -0.732389 0.318413 0.601846
vn -0.732389 0.318413 0.601846
vn -0.732389 0.318413 0.601846
vn -0.732389 0.318413 0.601846
vn -0.374209 0.162025 0.913080
vn -0.374209 0.162025 0.913080
vn -0.374209 0.162025 0.913080
vn -0.374209 0.162025 0.913080
vn 0.032056 0.309032 0.950511
vn 0.032056 0.309032 0.950511
vn 0.032056 0.309032 0.950511
vn 0.032056 0.309032 0.950511
vn 0.649410 0.572546 0.500457
vn 0.649410 0.572546 0.500457
vn 0.649410 0.572546 0.500457
vn 0.649410 0.572546 0.500457
vn 0.871006 0.419454 0.255749
vn 0.871006 0.419454 0.255749
vn 0.871006 0.419454 0.255749
vn 0.871006 0.419454 0.255749
vn 0.963433 0.242349 -0.114298
vn 0.963433 0.242349 -0.114298
vn 0.963433 0.242349 -0.114298
vn 0.963433 0.242349 -0.114298
vn 0.342456 0.852366 -0.395216
vn 0.342456 0.852366 -0.395216
vn 0.342456 0.852366 -0.395215
vn 0.342456 0.852366 -0.395216
vn 0.001536 0.879353 -0.476168
vn 0.001536 0.879353 -0.476168
vn 0.001536 0.879353 -0.476168
vn 0.001536 0.879353 -0.476168
vn -0.417762 0.742919 -0.523016
vn -0.417762 0.742919 -0.523016
vn -0.417762 0.742919 -0.523016
vn -0.417762 0.742919 -0.523016
vn -0.451767 0.691226 -0.564016
vn -0.451767 0.691226 -0.564016
vn -0.451767 0.691226 -0.564016
vn -0.451766 0.691226 -0.564016
vn -0.578530 0.815496 0.016412
vn -0.578530 0.815496 0.016412
vn -0.578530 0.815496 0.016412
vn -0.578530 0.815496 0.016412
vn -0.519764 0.811241 0.267830
vn -0.519764 0.811241 0.267830
vn -0.519764 0.811241 0.267830
vn -0.519764 0.811241 0.267830
vn -0.264559 0.811528 0.520991
vn -0.264559 0.811528 0.520991
vn -0.264559 0.811528 0.520991
vn -0.264559 0.811528 0.520991
vn 0.180148 0.813033 0.553646
vn 0.180148 0.813033 0.553646
vn 0.180148 0.813033 0.553646
vn 0.180148 0.813033 0.553646
vn 0.628061 0.689042 0.361608
vn 0.628061 0.689042 0.361608
vn 0.628061 0.689042 0.361608
vn 0.628061 0.689042 0.361608
vn 0.591234 0.682751 0.429294
vn 0.591234 0.682751 0.429294
vn 0.591234 0.682751 0.429294
vn 0.591234 0.682751 0.429294
vn 0.506341 0.847397 -0.159805
vn 0.506341 0.847397 -0.159805
vn 0.506341 0.847397 -0.159805
vn 0.506341 0.847397 -0.159805
vn 0.151548 -0.972854 -0.174895
vn 0.151548 -0.972854 -0.174895
vn 0.151548 -0.972854 -0.174895
vn 0.032935 -0.972854 -0.229065
vn 0.032935 -0.972854 -0.229065
vn 0.032935 -0.972854 -0.229065
vn -0.096135 -0.972854 -0.210508
vn -0.096135 -0.972854 -0.210508
vn -0.096135 -0.972854 -0.210508
vn -0.194684 -0.972854 -0.125114
vn -0.194684 -0.972854 -0.125114
vn -0.194684 -0.972854 -0.125114
vn -0.231421 -0.972854 0.000000
vn -0.231421 -0.972854 0.000000
vn -0.231421 -0.972854 0.000000
vn -0.194684 -0.972854 0.125114
vn -0.194684 -0.972854 0.125114
vn -0.194684 -0.972854 0.125114
vn -0.096136 -0.972854 0.210508
vn -0.096136 -0.972854 0.210507
vn -0.096136 -0.972854 0.210508
vn 0.032934 -0.972854 0.229065
vn 0.032935 -0.972854 0.229065
vn 0.032935 -0.972854 0.229065
vn 0.151548 -0.972854 0.174895
vn 0.151548 -0.972854 0.174895
vn 0.151548 -0.972854 0.174895
vn 0.222046 -0.972854 0.065199
vn 0.222046 -0.972854 0.065199
vn 0.222046 -0.972854 0.065199
vn 0.222046 -0.972854 -0.065199
vn 0.222046 -0.972854 -0.065199
vn 0.222046 -0.972854 -0.065199
vn 0.117909 0.983657 -0.136074
vn 0.117909 0.983657 -0.136074
vn 0.117909 0.983657 -0.136074
vn -0.165618 0.951479 -0.259344
vn -0.165618 0.951479 -0.259344
vn -0.165618 0.951479 -0.259344
vn 0.132761 0.944594 -0.300195
vn 0.132761 0.944594 -0.300195
vn 0.132761 0.944594 -0.300195
vn -0.128364 0.988290 -0.082495
vn -0.128364 0.988290 -0.082495
vn -0.128364 0.988290 -0.082495
vn -0.137038 0.989126 -0.053393
vn -0.137038 0.989126 -0.053393
vn -0.137038 0.989126 -0.053393
vn -0.102449 0.992557 0.065840
vn -0.102449 0.992557 0.065840
vn -0.102449 0.992557 0.065840
vn -0.199938 0.979591 -0.020655
vn -0.199938 0.979591 -0.020655
vn -0.199938 0.979591 -0.020655
vn 0.274248 0.960492 0.047365
vn 0.274248 0.960492 0.047365
vn 0.274248 0.960492 0.047365
vn 0.091561 0.985700 0.141461
vn 0.091561 0.985700 0.141461
vn 0.091561 0.985700 0.141461
vn 0.153720 0.987083 0.045137
vn 0.153720 0.987083 0.045137
vn 0.153720 0.987083 0.045137
vn 0.153368 0.984821 -0.081277
vn 0.153368 0.984821 -0.081277
vn 0.153368 0.984821 -0.081277
s off
g pSphere1
usemtl initialShadingGroup
f 1/51/1 2/52/2 13/53/3 12/54/4
f 2/52/5 3/56/6 14/57/7 13/53/8
f 3/56/9 4/59/10 15/60/11 14/57/12
f 4/5/13 5/6/14 16/2/15 15/1/16
f 5/6/17 6/11/18 17/7/19 16/2/20
f 6/11/21 7/17/22 18/12/23 17/7/24
f 7/69/25 8/66/26 19/68/27 18/70/28
f 8/66/29 9/62/30 20/65/31 19/68/32
f 9/62/33 10/61/34 21/64/35 20/65/36
f 10/28/37 11/29/38 22/25/39 21/24/40
f 11/29/41 1/36/42 12/30/43 22/25/44
f 12/30/45 13/37/46 24/38/47 23/31/48
f 13/93/49 14/94/50 25/95/51 24/96/52
f 14/94/53 15/97/54 26/98/55 25/95/56
f 15/1/57 16/2/58 27/3/59 26/4/60
f 16/2/61 17/7/62 28/8/63 27/3/64
f 17/7/65 18/12/66 29/13/67 28/8/68
f 18/104/69 19/105/70 30/106/71 29/107/72
f 19/105/73 20/108/74 31/109/75 30/106/76
f 20/34/77 21/24/78 32/27/79 31/35/80
f 21/24/81 22/25/82 33/26/83 32/27/84
f 22/25/85 12/30/86 23/31/87 33/26/88
f 23/31/89 24/38/90 35/43/91 34/39/92
f 24/96/93 25/95/94 36/99/95 35/100/96
f 25/95/97 26/98/98 37/101/99 36/99/100
f 26/4/101 27/3/102 38/9/103 37/10/104
f 27/3/105 28/8/106 39/14/107 38/9/108
f 28/8/109 29/13/110 40/18/111 39/14/112
f 29/107/113 30/106/114 41/110/115 40/111/116
f 30/106/117 31/109/118 42/112/119 41/110/120
f 31/35/121 32/27/122 43/33/123 42/42/124
f 32/27/125 33/26/126 44/32/127 43/33/128
f 33/26/129 23/31/130 34/39/131 44/32/132
f 34/39/133 35/43/134 46/48/135 45/44/136
f 35/100/137 36/99/138 47/102/139 46/103/140
f 36/81/141 37/82/142 48/78/143 47/75/144
f 37/10/145 38/9/146 49/15/147 48/16/148
f 38/9/149 39/14/150 50/19/151 49/15/152
f 39/14/153 40/18/154 51/20/155 50/19/156
f 40/111/157 41/110/158 52/113/159 51/114/160
f 41/110/161 42/112/162 53/115/163 52/113/164
f 42/42/165 43/33/166 54/41/167 53/47/168
f 43/33/169 44/32/170 55/40/171 54/41/172
f 44/32/173 34/39/174 45/44/175 55/40/176
f 45/71/177 46/72/178 57/73/179 56/74/180
f 46/72/181 47/75/182 58/76/183 57/73/184
f 47/75/185 48/78/186 59/79/187 58/76/188
f 48/78/189 49/83/190 60/84/191 59/79/192
f 49/15/193 50/19/194 61/21/195 60/22/196
f 50/19/197 51/20/198 62/23/199 61/21/200
f 51/92/201 52/90/202 63/88/203 62/89/204
f 52/90/205 53/91/206 64/86/207 63/88/208
f 53/47/209 54/41/210 65/46/211 64/50/212
f 54/41/213 55/40/214 66/45/215 65/46/216
f 55/40/217 45/44/218 56/49/219 66/45/220
f 2/52/221 1/51/222 67/55/223
f 3/56/224 2/52/225 67/55/226
f 4/59/227 3/56/228 67/55/229
f 5/63/230 4/59/231 67/55/232
f 6/67/233 5/63/234 67/55/235
f 7/69/236 6/67/237 67/55/238
f 8/66/239 7/69/240 67/55/241
f 9/62/242 8/66/243 67/55/244
f 10/61/245 9/62/246 67/55/247
f 11/58/248 10/61/249 67/55/250
f 1/51/251 11/58/252 67/55/253
f 56/74/254 57/73/255 68/77/256
f 57/73/257 58/76/258 68/77/259
f 58/76/260 59/79/261 68/77/262
f 59/79/263 60/84/264 68/77/265
f 60/84/266 61/87/267 68/77/268
f 61/87/269 62/89/270 68/77/271
f 62/89/272 63/88/273 68/77/274
f 63/88/275 64/86/276 68/77/277
f 64/86/278 65/85/279 68/77/280
f 65/85/281 66/80/282 68/77/283
f 66/80/284 56/74/285 68/77/286